<svg xmlns="http://www.w3.org/2000/svg" width="128" height="128" viewBox="0 0 33.867 33.867"><g style="display:inline"><path d="M16.698 264.062c-3.827.114-7.528 1.78-10.405 4.252a18.943 18.943 0 0 0-4.14 7.134c-1.023 4.04-.339 8.432 1.49 12.141 2.316 4.709 7.149 8.04 12.387 8.46 4.916.314 10.08-1.66 13.057-5.688 1.41-1.857 2.447-4.014 2.952-6.294-1.875 3.581-5.89 5.856-9.928 5.6-3.71-.128-7.759-1.572-9.644-4.988-.833-1.477-1.138-3.192-1.13-4.87-.155-1.534 3.242-1.546 1.526-2.84-1.957-.342-.547-2.82.885-2.638 2.383.274-.612-2.917 1.417-2.605 1.98.058 3.783 2.107 3.439 4.09 1.855-.338 2.99-2.3 2.678-4.1 1.492.801 1.91 2.875.785 4.16-1.517 1.217 1.352 1.99 2.385 1.7 1.102-.552-1.36 1.09-.779 1.937.138 1.87 2.544 2.358 3.899 1.398 2.455-2.234 2.45-5.952 1.532-8.903-.71-2.649-2.587-4.932-5.058-6.129-2.239-1.223-4.793-1.889-7.348-1.817zm4.667 26.355c.068.001.365.007 0 0z" style="fill:#000;fill-opacity:1;stroke:#000;stroke-width:.66145831;stroke-linecap:round;stroke-linejoin:round;stroke-miterlimit:4;stroke-dasharray:none;stroke-opacity:1" transform="translate(0 -263.133)"/><path d="M32.039 284.067s-3.344 7.133-12.325 5.31c0 0-8.47-1.009-8.37-9.542 0 0-.586-1.66 1.822-1.778 0 0 1.193-.432-1.391-1.73 0 0-1.24-1.754 1.193-1.93 2.432-.175 1.931-.267 1.336-2.532 0 0 2.282-2.398 4.167 2.331 0 0 .281.777.133 1.62 0 0 3.026-.528 2.678-4.1l1.687 1.033 2.233 5.308 4.043-.62-.248-5.531s.024-.046-.372-1.239c-.397-1.192-2.034-3.028-2.034-3.028s-8.28-7.893-19.154-.246c0 0-2.292 1.123-4.818 6.665 0 0-2.175 13.05 3.719 16.066l21.608.421s3.836-4.817 4.093-6.478z" style="fill:#95eced;fill-opacity:1;stroke:none;stroke-width:.26458335px;stroke-linecap:butt;stroke-linejoin:miter;stroke-opacity:1" transform="translate(0 -263.133)"/><path d="M28.625 270.667s2.946 6.525-1.053 10.243c0 0-2.596 1.54-3.788-.843 0 0-.702-1.682 1.333-2.805 0 0 1.333 1.333 2.736-.631 0 0 1.824-2.877.772-5.964z" style="fill:#208caf;fill-opacity:1;stroke:none;stroke-width:.26458335px;stroke-linecap:butt;stroke-linejoin:miter;stroke-opacity:1" transform="translate(0 -263.133)"/><path d="M24.275 277.616c3.084-.57 1.543-6.434 1.543-6.434s-.22 1.923-1.212 2.17c0 0-.645.299-1.587-2.281 0 0-.992-2.58-3.77-3.77 0 0 3.075 1.587 3.274 5.754 0 0 .843 1.836-1.042 3.423 0 0 .23 1.184 2.794 1.138z" style="fill:#1d7da1;fill-opacity:1;stroke:none;stroke-width:.26458335px;stroke-linecap:butt;stroke-linejoin:miter;stroke-opacity:1" transform="translate(0 -263.133)"/><path d="M19.248 267.3s1.762 2.084 2.034 4.416c0 0 1.017.744 1.24 1.34 0 0 .497-3.622-3.274-5.755z" style="fill:#186886;fill-opacity:1;stroke:none;stroke-width:.26458335px;stroke-linecap:butt;stroke-linejoin:miter;stroke-opacity:1" transform="translate(0 -263.133)"/><path d="M18.471 274.196s-.694-6.548-8.681-5.506c0 0 3.026-.397 4.514 3.175 0 0 2.43-.993 4.167 2.331z" style="fill:#19678e;fill-opacity:1;stroke:none;stroke-width:.26458335px;stroke-linecap:butt;stroke-linejoin:miter;stroke-opacity:1" transform="translate(0 -263.133)"/><path d="M11.775 276.327s.07-1.053 1.193-1.93c0 0-3.894-2.911-7.157.176-3.297 3.104-1.612 10.768-1.052 11.33 0 0-.877-12.207 7.016-9.576z" style="fill:#176693;fill-opacity:1;stroke:none;stroke-width:.26458335px;stroke-linecap:butt;stroke-linejoin:miter;stroke-opacity:1" transform="translate(0 -263.133)"/><path d="M32.039 284.067s-2.125 11.81-15.106 12.02c0 0-9.473.282-13.823-9.61 0 0-2.876-6.525-.49-12.419 0 0-1.018 7.414 2.14 11.845 0 0 .78 2.2 1.871 2.796 0 0-1.715-5.22.11-7.645l10.192 10.77s11.244 1.205 15.106-7.757z" style="fill:#1d93b2;fill-opacity:1;stroke:none;stroke-width:.26458335px;stroke-linecap:butt;stroke-linejoin:miter;stroke-opacity:1" transform="translate(0 -263.133)"/><path d="M32.039 284.067s-4.58 9.144-15.106 5.496c0 0-4.258-1.824-5.59-6.033 0 0-1.193-4.841 1.823-5.473 0 0-4.644-.737-6.425 2.997 0 0-2.016 9.348 10.192 11.456 13.23.454 15.106-8.443 15.106-8.443z" style="fill:#1f9cb6;fill-opacity:1;stroke:none;stroke-width:.26458335px;stroke-linecap:butt;stroke-linejoin:miter;stroke-opacity:1" transform="translate(0 -263.133)"/></g><g style="display:inline"><path d="M34.461 12.537h-11.58l5.79-10.028z" style="opacity:1;vector-effect:none;fill:#c4923a;fill-opacity:1;stroke:none;stroke-width:.47572839;stroke-linecap:round;stroke-linejoin:round;stroke-miterlimit:4;stroke-dasharray:none;stroke-dashoffset:0;stroke-opacity:1;paint-order:fill markers stroke" transform="rotate(-135 13.673 15.465) scale(.36106 1.16728)"/><path d="M33.339 14.01h-1.791V3.983Z" style="opacity:1;vector-effect:none;fill:#fef885;fill-opacity:1;stroke:none;stroke-width:.26458335;stroke-linecap:round;stroke-linejoin:round;stroke-miterlimit:4;stroke-dasharray:none;stroke-dashoffset:0;stroke-opacity:1;paint-order:fill markers stroke" transform="scale(-1.16728) rotate(45 45.103 -54.919)"/><path d="M34.461 12.537h-11.58l5.79-10.028z" style="opacity:1;vector-effect:none;fill:#fef885;fill-opacity:1;stroke:none;stroke-width:.47572839;stroke-linecap:round;stroke-linejoin:round;stroke-miterlimit:4;stroke-dasharray:none;stroke-dashoffset:0;stroke-opacity:1;paint-order:fill markers stroke" transform="rotate(135 6.664 1.457) scale(.36106 -1.16728)"/><path d="M33.339 14.01h-1.791V3.983Z" style="opacity:1;vector-effect:none;fill:#c4923a;fill-opacity:1;stroke:none;stroke-width:.26458335;stroke-linecap:round;stroke-linejoin:round;stroke-miterlimit:4;stroke-dasharray:none;stroke-dashoffset:0;stroke-opacity:1;paint-order:fill markers stroke" transform="scale(-1.16728 1.16728) rotate(45 10.104 -40.422)"/><path d="M34.461 12.537h-11.58l5.79-10.028z" style="opacity:1;vector-effect:none;fill:#c4923a;fill-opacity:1;stroke:none;stroke-width:.47572839;stroke-linecap:round;stroke-linejoin:round;stroke-miterlimit:4;stroke-dasharray:none;stroke-dashoffset:0;stroke-opacity:1;paint-order:fill markers stroke" transform="rotate(-45 54.247 -7.82) scale(.36106 -1.16728)"/><path d="M33.339 14.01h-1.791V3.983Z" style="opacity:1;vector-effect:none;fill:#fef885;fill-opacity:1;stroke:none;stroke-width:.26458335;stroke-linecap:round;stroke-linejoin:round;stroke-miterlimit:4;stroke-dasharray:none;stroke-dashoffset:0;stroke-opacity:1;paint-order:fill markers stroke" transform="scale(1.16728 -1.16728) rotate(45 59.592 -19.94)"/><g style="fill:none;stroke:#000"><path d="m29.845 6.449 1.791 10.029h-3.582z" style="opacity:1;vector-effect:none;fill:none;fill-opacity:1;stroke:#000;stroke-width:.26458335;stroke-linecap:round;stroke-linejoin:round;stroke-miterlimit:4;stroke-dasharray:none;stroke-dashoffset:0;stroke-opacity:1;paint-order:fill markers stroke" transform="scale(-1.16728 1.16728) rotate(45 12.231 -37.133)"/></g><path d="M34.461 12.537h-11.58l5.79-10.028z" style="opacity:1;vector-effect:none;fill:#fef885;fill-opacity:1;stroke:none;stroke-width:.47572839;stroke-linecap:round;stroke-linejoin:round;stroke-miterlimit:4;stroke-dasharray:none;stroke-dashoffset:0;stroke-opacity:1;paint-order:fill markers stroke" transform="matrix(.37934 0 0 1.22637 6.036 -.428)"/><path d="M33.339 14.01h-1.791V3.983Z" style="opacity:1;vector-effect:none;fill:#c4923a;fill-opacity:1;stroke:none;stroke-width:.26458335;stroke-linecap:round;stroke-linejoin:round;stroke-miterlimit:4;stroke-dasharray:none;stroke-dashoffset:0;stroke-opacity:1;paint-order:fill markers stroke" transform="matrix(1.22637 0 0 1.22637 -21.777 -2.235)"/><g style="fill:none;stroke:#000"><path d="m29.845 6.449 1.791 10.029h-3.582z" style="opacity:1;vector-effect:none;fill:none;fill-opacity:1;stroke:#000;stroke-width:.26458335;stroke-linecap:round;stroke-linejoin:round;stroke-miterlimit:4;stroke-dasharray:none;stroke-dashoffset:0;stroke-opacity:1;paint-order:fill markers stroke" transform="matrix(-1.16534 0 0 1.22235 51.692 -5.231)"/></g><g style="fill:none;stroke:#000"><path d="m29.845 6.449 1.791 10.029h-3.582z" style="opacity:1;vector-effect:none;fill:none;fill-opacity:1;stroke:#000;stroke-width:.26458335;stroke-linecap:round;stroke-linejoin:round;stroke-miterlimit:4;stroke-dasharray:none;stroke-dashoffset:0;stroke-opacity:1;paint-order:fill markers stroke" transform="scale(-1.16728) rotate(45 47.23 -51.63)"/></g><g style="fill:none;stroke:#000"><path d="m29.845 6.449 1.791 10.029h-3.582z" style="opacity:1;vector-effect:none;fill:none;fill-opacity:1;stroke:#000;stroke-width:.26458335;stroke-linecap:round;stroke-linejoin:round;stroke-miterlimit:4;stroke-dasharray:none;stroke-dashoffset:0;stroke-opacity:1;paint-order:fill markers stroke" transform="scale(1.16728 -1.16728) rotate(45 61.718 -16.65)"/></g><path d="M34.461 12.537h-11.58l5.79-10.028z" style="opacity:1;vector-effect:none;fill:#fef885;fill-opacity:1;stroke:none;stroke-width:.47572839;stroke-linecap:round;stroke-linejoin:round;stroke-miterlimit:4;stroke-dasharray:none;stroke-dashoffset:0;stroke-opacity:1;paint-order:fill markers stroke" transform="matrix(.37934 0 0 -1.22637 6.036 34.165)"/><path d="M33.339 14.01h-1.791V3.983Z" style="opacity:1;vector-effect:none;fill:#c4923a;fill-opacity:1;stroke:none;stroke-width:.26458335;stroke-linecap:round;stroke-linejoin:round;stroke-miterlimit:4;stroke-dasharray:none;stroke-dashoffset:0;stroke-opacity:1;paint-order:fill markers stroke" transform="matrix(1.22637 0 0 -1.22637 -21.777 35.972)"/><path d="M34.461 12.537h-11.58l5.79-10.028z" style="opacity:1;vector-effect:none;fill:#fef885;fill-opacity:1;stroke:none;stroke-width:.47572839;stroke-linecap:round;stroke-linejoin:round;stroke-miterlimit:4;stroke-dasharray:none;stroke-dashoffset:0;stroke-opacity:1;paint-order:fill markers stroke" transform="matrix(0 .37934 -1.22637 0 34.302 6.085)"/><path d="M33.339 14.01h-1.791V3.983Z" style="opacity:1;vector-effect:none;fill:#c4923a;fill-opacity:1;stroke:none;stroke-width:.26458335;stroke-linecap:round;stroke-linejoin:round;stroke-miterlimit:4;stroke-dasharray:none;stroke-dashoffset:0;stroke-opacity:1;paint-order:fill markers stroke" transform="rotate(90 28.919 7.19) scale(1.22637)"/><g style="fill:none;stroke:#000"><path d="m17.626 18.049 10.52-1.708v3.415z" style="opacity:1;vector-effect:none;fill:none;fill-opacity:1;stroke:#000;stroke-width:.26458335;stroke-linecap:round;stroke-linejoin:round;stroke-miterlimit:4;stroke-dasharray:none;stroke-dashoffset:0;stroke-opacity:1;paint-order:fill markers stroke" transform="matrix(-1.16534 0 0 -1.22235 51.692 39.098)"/></g><path d="M34.461 12.537h-11.58l5.79-10.028z" style="opacity:1;vector-effect:none;fill:#fef885;fill-opacity:1;stroke:none;stroke-width:.47572839;stroke-linecap:round;stroke-linejoin:round;stroke-miterlimit:4;stroke-dasharray:none;stroke-dashoffset:0;stroke-opacity:1;paint-order:fill markers stroke" transform="matrix(0 .37934 1.22637 0 -.516 6.145)"/><path d="M33.339 14.01h-1.791V3.983Z" style="opacity:1;vector-effect:none;fill:#c4923a;fill-opacity:1;stroke:none;stroke-width:.26458335;stroke-linecap:round;stroke-linejoin:round;stroke-miterlimit:4;stroke-dasharray:none;stroke-dashoffset:0;stroke-opacity:1;paint-order:fill markers stroke" transform="matrix(0 1.22637 1.22637 0 -2.323 -21.668)"/><g style="stroke:#000"><path d="m29.845 6.449 1.791 10.029h-3.582z" style="opacity:1;vector-effect:none;fill:red;fill-opacity:1;stroke:#000;stroke-width:.26458335;stroke-linecap:round;stroke-linejoin:round;stroke-miterlimit:4;stroke-dasharray:none;stroke-dashoffset:0;stroke-opacity:1;paint-order:fill markers stroke" transform="scale(1.16728) rotate(45 26.72 -2.154)"/></g><g style="fill:none;stroke:#000"><path d="m29.845 6.449 1.791 10.029h-3.582z" style="opacity:1;vector-effect:none;fill:none;fill-opacity:1;stroke:#000;stroke-width:.26458335;stroke-linecap:round;stroke-linejoin:round;stroke-miterlimit:4;stroke-dasharray:none;stroke-dashoffset:0;stroke-opacity:1;paint-order:fill markers stroke" transform="matrix(-1.16534 0 0 -1.22235 51.692 39.098)"/></g><g style="fill:none;stroke:#000"><path d="m17.626 18.049 10.52-1.708v3.415z" style="opacity:1;vector-effect:none;fill:none;fill-opacity:1;stroke:#000;stroke-width:.26458335;stroke-linecap:round;stroke-linejoin:round;stroke-miterlimit:4;stroke-dasharray:none;stroke-dashoffset:0;stroke-opacity:1;paint-order:fill markers stroke" transform="matrix(1.16534 0 0 -1.22235 -17.769 39.098)"/></g><g transform="matrix(1.22637 0 0 1.22637 -3.854 -3.845)"><circle cx="16.933" cy="16.933" r="2.187" style="opacity:1;vector-effect:none;fill:#fff;fill-opacity:1;stroke:#000;stroke-width:.5291667;stroke-linecap:round;stroke-linejoin:round;stroke-miterlimit:4;stroke-dasharray:none;stroke-dashoffset:0;stroke-opacity:1;paint-order:fill markers stroke"/><circle cx="16.933" cy="16.933" r="1.217" style="opacity:1;vector-effect:none;fill:none;fill-opacity:1;stroke:#000;stroke-width:.5291667;stroke-linecap:round;stroke-linejoin:round;stroke-miterlimit:4;stroke-dasharray:none;stroke-dashoffset:0;stroke-opacity:1;paint-order:fill markers stroke"/></g></g></svg>